<svg width="20" height="20" version="1.1" id="Layer_1" xmlns="http://www.w3.org/2000/svg" xmlns:xlink="http://www.w3.org/1999/xlink"  viewBox="0 0 20 20"  xml:space="preserve" class="yandex-logo">
    <path class="st0" d="M4.4,2.7c1.4-1,3-1.6,4.7-1.8v2.8C8,3.8,7,4.3,6.1,4.9C5,5.7,4.1,6.9,3.7,8.2C3.3,9.6,3.4,11,3.8,12.3
	c0.5,1.3,1.3,2.4,2.5,3.2c1.2,0.8,2.5,1.2,3.9,1.1c1.4-0.1,2.7-0.6,3.8-1.5c1.1-0.9,1.8-2.1,2.2-3.4c0.2-0.9,0.3-1.9,0.1-2.9L18.6,7
	l0,0c0.6,1.7,0.7,3.6,0.3,5.4c-0.5,1.9-1.6,3.6-3.1,4.9c-1.5,1.3-3.4,2-5.4,2.1c-2,0.1-3.9-0.5-5.6-1.6c-1.6-1.1-2.9-2.7-3.6-4.6
	c-0.7-1.9-0.7-3.9-0.1-5.8C1.6,5.5,2.8,3.9,4.4,2.7z" />
    <path class="st0" d="M16.9,4L16.9,4l-1.6,2.5c-0.6-0.8-1.3-1.5-2.2-2v5.7c0,1.7-1.4,3.1-3.1,3.1c-1.7,0-3.1-1.4-3.1-3.1
	C6.8,8.4,8.2,7,9.9,7c0.7,0,1.3,0.2,1.8,0.5V1C13.7,1.4,15.5,2.5,16.9,4z" />
</svg>